<?xml version="1.0" encoding="UTF-8" standalone="no"?>
<svg
   xmlns:dc="http://purl.org/dc/elements/1.1/"
   xmlns:cc="http://creativecommons.org/ns#"
   xmlns:rdf="http://www.w3.org/1999/02/22-rdf-syntax-ns#"
   xmlns:svg="http://www.w3.org/2000/svg"
   xmlns="http://www.w3.org/2000/svg"
   xmlns:sodipodi="http://sodipodi.sourceforge.net/DTD/sodipodi-0.dtd"
   xmlns:inkscape="http://www.inkscape.org/namespaces/inkscape"
   width="128"
   height="256"
   viewBox="0 0 33.866666 67.733336"
   version="1.1"
   id="svg8"
   inkscape:export-filename="C:\Users\Griffin Hadland\Documents\GGJ Images\PirateBasic1.png"
   inkscape:export-xdpi="96"
   inkscape:export-ydpi="96"
   inkscape:version="1.0.2 (e86c870879, 2021-01-15, custom)"
   sodipodi:docname="Basic Pirate - Walk 2.svg">
  <defs
     id="defs2" />
  <sodipodi:namedview
     id="base"
     pagecolor="#ffffff"
     bordercolor="#666666"
     borderopacity="1.0"
     inkscape:pageopacity="0.0"
     inkscape:pageshadow="2"
     inkscape:zoom="2.8"
     inkscape:cx="4.925673"
     inkscape:cy="141.41193"
     inkscape:document-units="px"
     inkscape:current-layer="layer1"
     inkscape:document-rotation="0"
     showgrid="false"
     units="px"
     inkscape:window-width="1920"
     inkscape:window-height="1137"
     inkscape:window-x="1912"
     inkscape:window-y="-8"
     inkscape:window-maximized="1" />
  <metadata
     id="metadata5">
    <rdf:RDF>
      <cc:Work
         rdf:about="">
        <dc:format>image/svg+xml</dc:format>
        <dc:type
           rdf:resource="http://purl.org/dc/dcmitype/StillImage" />
        <dc:title></dc:title>
      </cc:Work>
    </rdf:RDF>
  </metadata>
  <g
     inkscape:label="Layer 1"
     inkscape:groupmode="layer"
     id="layer1">
    <path
       style="fill:#d5a195;fill-opacity:1;stroke:#d5a195;stroke-width:0.257612px;stroke-linecap:butt;stroke-linejoin:miter;stroke-opacity:1"
       d="m 24.595962,48.736551 c 0,0 2.231253,0.88059 2.802784,2.411533 0.700595,1.876667 0.717237,5.704286 -0.108989,6.333637 -0.826227,0.629348 -2.960326,0.401884 -3.131231,-0.338775 -0.1709,-0.74066 1.592782,-5.870546 -0.710407,-7.36302 -1.649077,-1.06861 1.147843,-1.043375 1.147843,-1.043375 z"
       id="path1076-3"
       sodipodi:nodetypes="cssssc" />
    <path
       style="fill:#4a562f;fill-opacity:1;stroke:#000000;stroke-width:0.251544px;stroke-linecap:butt;stroke-linejoin:miter;stroke-opacity:0"
       d="m 24.316842,51.504639 c 1.247033,-0.575806 1.970417,-1.282251 3.195377,-0.916183 1.107509,0.330973 -1.447222,-3.557039 -3.036178,-3.273809 -1.588954,0.283224 -2.590947,1.382799 -0.159199,4.18999 z"
       id="path1080-2"
       sodipodi:nodetypes="cssc" />
    <ellipse
       style="opacity:1;fill:#d5a195;fill-opacity:1;stroke:none;stroke-width:0.283837;stroke-miterlimit:4;stroke-dasharray:none;stroke-opacity:1"
       id="path942"
       cx="18.744074"
       cy="34.591022"
       rx="12.631671"
       ry="12.977089"
       inkscape:export-xdpi="96"
       inkscape:export-ydpi="96" />
    <ellipse
       style="opacity:1;fill:#e1d9cc;fill-opacity:1;stroke:none;stroke-width:0.280065;stroke-miterlimit:4;stroke-dasharray:none;stroke-opacity:1"
       id="path944-4"
       cx="26.935423"
       cy="34.114075"
       rx="2.3497958"
       ry="3.2702372"
       inkscape:export-xdpi="96"
       inkscape:export-ydpi="96" />
    <ellipse
       style="fill:#e1d9cc;fill-opacity:1;stroke:none;stroke-width:0.280065;stroke-miterlimit:4;stroke-dasharray:none;stroke-opacity:1"
       id="path944-4-4"
       cx="18.370941"
       cy="34.647041"
       rx="2.3497958"
       ry="3.2702372"
       inkscape:export-xdpi="96"
       inkscape:export-ydpi="96" />
    <ellipse
       style="opacity:1;fill:#735558;fill-opacity:1;stroke:none;stroke-width:0.172972;stroke-miterlimit:4;stroke-dasharray:none;stroke-opacity:1"
       id="path944-3"
       cx="19.077995"
       cy="34.801048"
       rx="1.451267"
       ry="2.0197446"
       inkscape:export-xdpi="96"
       inkscape:export-ydpi="96" />
    <ellipse
       style="opacity:1;fill:#735558;fill-opacity:1;stroke:none;stroke-width:0.160162;stroke-miterlimit:4;stroke-dasharray:none;stroke-opacity:1"
       id="path944-4-9"
       cx="27.683311"
       cy="34.300205"
       rx="1.3437852"
       ry="1.8701606"
       inkscape:export-xdpi="96"
       inkscape:export-ydpi="96" />
    <path
       style="fill:#4a562f;fill-opacity:1;stroke:#4a562f;stroke-width:0.306184px;stroke-linecap:butt;stroke-linejoin:miter;stroke-opacity:1"
       d="m 13.597886,56.030578 c 0,0 -2.085181,5.737488 -0.21571,6.818464 1.869472,1.080979 4.601777,1.413586 4.889383,-0.831519 0.287616,-2.245102 -0.07189,-5.654334 -0.07189,-5.654334 z"
       id="path1054" />
    <path
       style="fill:#4a562f;fill-opacity:1;stroke:#4a562f;stroke-width:0.295256px;stroke-linecap:butt;stroke-linejoin:miter;stroke-opacity:1"
       d="m 19.928232,56.404866 c 0,0 -0.705212,5.935828 1.272808,6.402323 1.978019,0.46649 4.599325,-0.01151 4.382315,-2.181989 -0.217006,-2.170486 -1.2895,-5.23698 -1.2895,-5.23698 z"
       id="path1054-7" />
    <path
       style="fill:#658359;fill-opacity:1;stroke:#658359;stroke-width:0.279625px;stroke-linecap:butt;stroke-linejoin:miter;stroke-opacity:1"
       d="m 13.495698,47.498303 c 0,0 -2.383973,6.902706 -0.43345,8.214222 1.950522,1.311514 7.513127,2.761083 10.980722,0.414165 3.467596,-2.346922 0.07224,-9.180602 0.07224,-9.180602 0,0 -7.437097,-4.008951 -10.330547,0.138053 z"
       id="path1052"
       sodipodi:nodetypes="csscsc" />
    <path
       style="fill:#d5a195;fill-opacity:1;stroke:#d5a195;stroke-width:0.294558px;stroke-linecap:butt;stroke-linejoin:miter;stroke-opacity:1"
       d="m 12.790507,49.090863 c 0,0 -2.017982,0.289257 -2.537943,2.132432 -0.5199663,1.843171 -0.8527923,6.141107 0.06604,6.928001 0.918829,0.78689 3.076261,1.972077 3.236336,1.085376 0.160079,-0.8867 -0.753265,-7.131122 0.517882,-8.848895 1.271146,-1.717773 -1.282311,-1.296914 -1.282311,-1.296914 z"
       id="path1076" />
    <path
       style="fill:#c1a051;fill-opacity:1;stroke:#b69b5a;stroke-width:0.280865px;stroke-linecap:butt;stroke-linejoin:miter;stroke-opacity:1"
       d="m 11.121138,31.644871 c 0,0 -1.9679916,6.281032 1.09333,8.144637 3.061319,1.863602 13.047056,-2.07067 15.598154,-1.380447 2.551099,0.690223 2.769766,1.863604 2.04088,3.244049 -0.728885,1.38045 -2.769766,5.866902 -8.236409,6.212015 -5.466642,0.34511 -14.5777129,-0.345116 -15.6710426,-12.769136 0,0 5.2479776,-8.282683 5.1750876,-3.451118 z"
       id="path1006"
       inkscape:export-xdpi="96"
       inkscape:export-ydpi="96" />
    <ellipse
       style="fill:#181f4e;fill-opacity:1;stroke:none;stroke-width:0.23491;stroke-miterlimit:4;stroke-dasharray:none;stroke-opacity:1"
       id="path944-3-4"
       cx="27.530941"
       cy="22.338385"
       rx="1.9265896"
       ry="2.8061197"
       transform="matrix(0.70244042,0.71174255,-0.70244042,0.71174255,0,0)"
       inkscape:export-xdpi="96"
       inkscape:export-ydpi="96" />
    <path
       style="fill:#181f4e;fill-opacity:1;stroke:#181f4e;stroke-width:0.292202px;stroke-linecap:butt;stroke-linejoin:miter;stroke-opacity:1"
       d="M 30.654233,28.356924 C 32.215053,31.250847 15.236656,25.132106 5.9460504,35.095989 4.6082032,36.085051 5.5427871,23.260194 13.304211,20.369957 23.338065,16.633501 29.204899,22.935402 30.654233,28.356924 Z"
       id="path990"
       sodipodi:nodetypes="ccsc"
       inkscape:export-xdpi="96"
       inkscape:export-ydpi="96" />
    <path
       style="fill:#181f4e;fill-opacity:1;stroke:#181f4e;stroke-width:0.279625px;stroke-linecap:butt;stroke-linejoin:miter;stroke-opacity:1"
       d="m 2.6229391,29.987984 c 0,0 2.0227615,0.06903 3.6120771,1.932758 1.5893155,1.86373 -0.2889658,3.175247 -0.2889658,3.175247 0,0 -4.7679455,-1.173461 -3.3231113,-5.108005 z"
       id="path1050"
       inkscape:export-xdpi="96"
       inkscape:export-ydpi="96" />
    <path
       style="fill:#4a562f;fill-opacity:1;stroke:#000000;stroke-width:0.279625px;stroke-linecap:butt;stroke-linejoin:miter;stroke-opacity:0"
       d="m 9.6554783,50.588095 c -0.056679,0.602613 3.7601097,-0.516215 4.1534137,0.253808 0.393302,0.770026 2.241256,-3.637679 0.203315,-3.672244 -2.03794,-0.03457 -3.995066,0.302256 -4.3567287,3.418436 z"
       id="path1080"
       sodipodi:nodetypes="cssc" />
    <ellipse
       style="opacity:1;fill:#4a562f;fill-opacity:1;stroke:#000000;stroke-width:0.280065;stroke-miterlimit:4;stroke-dasharray:none;stroke-opacity:0"
       id="path1106"
       cx="20.316235"
       cy="50.290237"
       rx="0.39588952"
       ry="0.53690457" />
    <ellipse
       style="fill:#4a562f;fill-opacity:1;stroke:#000000;stroke-width:0.280065;stroke-miterlimit:4;stroke-dasharray:none;stroke-opacity:0"
       id="path1106-4"
       cx="20.380087"
       cy="52.559879"
       rx="0.39588952"
       ry="0.53690457" />
    <ellipse
       style="fill:#4a562f;fill-opacity:1;stroke:#000000;stroke-width:0.280065;stroke-miterlimit:4;stroke-dasharray:none;stroke-opacity:0"
       id="path1106-2"
       cx="20.456709"
       cy="54.75631"
       rx="0.39588952"
       ry="0.53690457" />
    <path
       style="fill:#e1d9cc;fill-opacity:1;stroke:#b69b5a;stroke-width:0.593945px;stroke-linecap:butt;stroke-linejoin:miter;stroke-opacity:1"
       d="m 21.211836,42.467662 c 0,0 0.330525,-0.893736 0.942749,-1.128283 0.612231,-0.234542 3.711568,-0.6235 3.961808,-0.983214 0.250237,-0.359705 0.878214,2.311411 -1.261526,3.574997 -2.139744,1.263589 -3.643034,-1.463506 -3.643034,-1.463506 z"
       id="path1137"
       inkscape:export-xdpi="96"
       inkscape:export-ydpi="96" />
    <path
       style="fill:#000841;fill-opacity:1;stroke:#000841;stroke-width:0.279625px;stroke-linecap:butt;stroke-linejoin:miter;stroke-opacity:1"
       d="m 29.979709,27.013631 c 0,0 1.89634,2.139839 0.288966,2.24338 -1.607376,0.10354 -12.263011,-1.173461 -17.771432,1.570365 -5.508422,2.743825 -6.5511924,4.268612 -6.5511924,4.268612 0,0 0.7899249,-3.405774 3.2280785,-4.354896 2.4381539,-0.949122 9.3191659,-4.434988 14.7553459,-4.141624 5.436178,0.293365 6.050234,0.414163 6.050234,0.414163 z"
       id="path1139"
       inkscape:export-xdpi="96"
       inkscape:export-ydpi="96" />
  </g>
</svg>
