<?xml version="1.0" encoding="UTF-8" standalone="no"?>
<svg
   xmlns:dc="http://purl.org/dc/elements/1.1/"
   xmlns:cc="http://creativecommons.org/ns#"
   xmlns:rdf="http://www.w3.org/1999/02/22-rdf-syntax-ns#"
   xmlns:svg="http://www.w3.org/2000/svg"
   xmlns="http://www.w3.org/2000/svg"
   xmlns:sodipodi="http://sodipodi.sourceforge.net/DTD/sodipodi-0.dtd"
   xmlns:inkscape="http://www.inkscape.org/namespaces/inkscape"
   width="128"
   height="256"
   viewBox="0 0 33.866666 67.733336"
   version="1.1"
   id="svg8"
   inkscape:export-filename="C:\Users\Griffin Hadland\Documents\GGJ Images\PirateBasic1.png"
   inkscape:export-xdpi="96"
   inkscape:export-ydpi="96"
   inkscape:version="1.0.2 (e86c870879, 2021-01-15, custom)"
   sodipodi:docname="Basic Pirate - Walk 1.svg">
  <defs
     id="defs2" />
  <sodipodi:namedview
     id="base"
     pagecolor="#ffffff"
     bordercolor="#666666"
     borderopacity="1.0"
     inkscape:pageopacity="0.0"
     inkscape:pageshadow="2"
     inkscape:zoom="2.8"
     inkscape:cx="4.925673"
     inkscape:cy="141.41193"
     inkscape:document-units="px"
     inkscape:current-layer="layer1"
     inkscape:document-rotation="0"
     showgrid="false"
     units="px"
     inkscape:window-width="1920"
     inkscape:window-height="1017"
     inkscape:window-x="-8"
     inkscape:window-y="105"
     inkscape:window-maximized="1" />
  <metadata
     id="metadata5">
    <rdf:RDF>
      <cc:Work
         rdf:about="">
        <dc:format>image/svg+xml</dc:format>
        <dc:type
           rdf:resource="http://purl.org/dc/dcmitype/StillImage" />
        <dc:title />
      </cc:Work>
    </rdf:RDF>
  </metadata>
  <g
     inkscape:label="Layer 1"
     inkscape:groupmode="layer"
     id="layer1">
    <path
       style="fill:#d5a195;fill-opacity:1;stroke:#d5a195;stroke-width:0.257612px;stroke-linecap:butt;stroke-linejoin:miter;stroke-opacity:1"
       d="m 25.368353,44.928751 c 0,0 1.927312,1.428076 2.083131,3.054776 0.191006,1.994048 -0.78358,5.695552 -1.744541,6.089615 -0.960961,0.39406 -2.963471,-0.377999 -2.936855,-1.137654 0.02662,-0.759654 3.057918,-5.258269 1.219489,-7.295998 -1.31631,-1.45901 1.378776,-0.710739 1.378776,-0.710739 z"
       id="path1076-3"
       sodipodi:nodetypes="cssssc" />
    <path
       style="fill:#4a562f;fill-opacity:1;stroke:#000000;stroke-width:0.251544px;stroke-linecap:butt;stroke-linejoin:miter;stroke-opacity:0"
       d="m 24.142351,47.415857 c 1.353571,-0.23343 2.235147,-0.728578 3.323622,-0.05794 0.98411,0.60634 -0.477279,-3.810405 -2.085398,-3.948078 -1.608115,-0.137678 -2.860557,0.665095 -1.238224,4.006016 z"
       id="path1080-2"
       sodipodi:nodetypes="cssc" />
    <ellipse
       style="fill:#d5a195;fill-opacity:1;stroke:none;stroke-width:0.283837;stroke-miterlimit:4;stroke-dasharray:none;stroke-opacity:1"
       id="path942"
       cx="18.869928"
       cy="30.807262"
       rx="12.631671"
       ry="12.977089"
       inkscape:export-xdpi="96"
       inkscape:export-ydpi="96" />
    <ellipse
       style="fill:#e1d9cc;fill-opacity:1;stroke:none;stroke-width:0.280065;stroke-miterlimit:4;stroke-dasharray:none;stroke-opacity:1"
       id="path944-4"
       cx="27.061277"
       cy="30.330315"
       rx="2.3497958"
       ry="3.2702372"
       inkscape:export-xdpi="96"
       inkscape:export-ydpi="96" />
    <ellipse
       style="fill:#e1d9cc;fill-opacity:1;stroke:none;stroke-width:0.280065;stroke-miterlimit:4;stroke-dasharray:none;stroke-opacity:1"
       id="path944-4-4"
       cx="18.496796"
       cy="30.863281"
       rx="2.3497958"
       ry="3.2702372"
       inkscape:export-xdpi="96"
       inkscape:export-ydpi="96" />
    <ellipse
       style="fill:#735558;fill-opacity:1;stroke:none;stroke-width:0.172972;stroke-miterlimit:4;stroke-dasharray:none;stroke-opacity:1"
       id="path944-3"
       cx="19.20385"
       cy="31.017288"
       rx="1.451267"
       ry="2.0197446"
       inkscape:export-xdpi="96"
       inkscape:export-ydpi="96" />
    <ellipse
       style="fill:#735558;fill-opacity:1;stroke:none;stroke-width:0.160162;stroke-miterlimit:4;stroke-dasharray:none;stroke-opacity:1"
       id="path944-4-9"
       cx="27.809166"
       cy="30.516445"
       rx="1.3437852"
       ry="1.8701606"
       inkscape:export-xdpi="96"
       inkscape:export-ydpi="96" />
    <path
       style="fill:#4a562f;fill-opacity:1;stroke:#4a562f;stroke-width:0.317439px;stroke-linecap:butt;stroke-linejoin:miter;stroke-opacity:1"
       d="m 13.727495,52.253008 c 0,0 -2.081053,6.179292 -0.215283,7.343507 1.86577,1.164217 4.592665,1.522436 4.879702,-0.895549 0.287046,-2.417981 -0.07175,-6.089734 -0.07175,-6.089734 z"
       id="path1054" />
    <path
       style="fill:#4a562f;fill-opacity:1;stroke:#4a562f;stroke-width:0.284868px;stroke-linecap:butt;stroke-linejoin:miter;stroke-opacity:1"
       d="m 20.054087,52.550827 c 0,0 -0.705212,5.52549 1.272808,5.959736 1.978019,0.434242 4.599325,-0.01071 4.382315,-2.03115 -0.217006,-2.020442 -1.2895,-4.874952 -1.2895,-4.874952 z"
       id="path1054-7" />
    <path
       style="fill:#658359;fill-opacity:1;stroke:#658359;stroke-width:0.279625px;stroke-linecap:butt;stroke-linejoin:miter;stroke-opacity:1"
       d="m 13.621553,43.714544 c 0,0 -2.383973,6.902706 -0.43345,8.214222 1.950522,1.311514 7.513127,2.761083 10.980722,0.414165 3.467596,-2.346922 0.07224,-9.180602 0.07224,-9.180602 0,0 -7.437097,-4.008951 -10.330547,0.138053 z"
       id="path1052"
       sodipodi:nodetypes="csscsc" />
    <path
       style="fill:#d5a195;fill-opacity:1;stroke:#d5a195;stroke-width:0.294558px;stroke-linecap:butt;stroke-linejoin:miter;stroke-opacity:1"
       d="m 12.56086,44.394664 c 0,0 -1.874355,0.801693 -1.899551,2.716639 -0.0252,1.914944 0.765702,6.152573 1.856889,6.674843 1.091183,0.522267 3.481851,1.108685 3.406976,0.210767 -0.07487,-0.897918 -2.573268,-6.693175 -1.790027,-8.681414 0.783241,-1.988238 -1.574283,-0.920836 -1.574283,-0.920836 z"
       id="path1076" />
    <path
       style="fill:#c1a051;fill-opacity:1;stroke:#b69b5a;stroke-width:0.280865px;stroke-linecap:butt;stroke-linejoin:miter;stroke-opacity:1"
       d="m 11.246993,27.861112 c 0,0 -1.9679916,6.281032 1.09333,8.144637 3.061319,1.863602 13.047056,-2.07067 15.598154,-1.380447 2.551099,0.690223 2.769766,1.863604 2.04088,3.244049 -0.728885,1.38045 -2.769766,5.866902 -8.236409,6.212015 C 16.276306,44.426476 7.1652351,43.73625 6.0719054,31.31223 c 0,0 5.2479776,-8.282683 5.1750876,-3.451118 z"
       id="path1006"
       inkscape:export-xdpi="96"
       inkscape:export-ydpi="96" />
    <ellipse
       style="fill:#181f4e;fill-opacity:1;stroke:none;stroke-width:0.23491;stroke-miterlimit:4;stroke-dasharray:none;stroke-opacity:1"
       id="path944-3-4"
       cx="24.962431"
       cy="19.590706"
       rx="1.9265896"
       ry="2.8061197"
       transform="matrix(0.70244042,0.71174255,-0.70244042,0.71174255,0,0)"
       inkscape:export-xdpi="96"
       inkscape:export-ydpi="96" />
    <path
       style="fill:#181f4e;fill-opacity:1;stroke:#181f4e;stroke-width:0.292202px;stroke-linecap:butt;stroke-linejoin:miter;stroke-opacity:1"
       d="M 30.780088,24.573165 C 32.340908,27.467088 15.362511,21.348347 6.0719054,31.31223 4.7340582,32.301292 5.6686421,19.476435 13.430066,16.586198 23.46392,12.849742 29.330754,19.151643 30.780088,24.573165 Z"
       id="path990"
       sodipodi:nodetypes="ccsc"
       inkscape:export-xdpi="96"
       inkscape:export-ydpi="96" />
    <path
       style="fill:#181f4e;fill-opacity:1;stroke:#181f4e;stroke-width:0.279625px;stroke-linecap:butt;stroke-linejoin:miter;stroke-opacity:1"
       d="m 2.7487941,26.204225 c 0,0 2.0227615,0.06903 3.6120771,1.932758 1.5893155,1.86373 -0.2889658,3.175247 -0.2889658,3.175247 0,0 -4.7679455,-1.173461 -3.3231113,-5.108005 z"
       id="path1050"
       inkscape:export-xdpi="96"
       inkscape:export-ydpi="96" />
    <path
       style="fill:#4a562f;fill-opacity:1;stroke:#000000;stroke-width:0.279625px;stroke-linecap:butt;stroke-linejoin:miter;stroke-opacity:0"
       d="m 9.9995674,47.806494 c 0.1012196,0.596749 3.4983806,-1.471813 4.0775796,-0.829823 0.579198,0.641994 1.223386,-4.093807 -0.75406,-3.599737 -1.977446,0.494066 -3.7807069,1.325956 -3.3235196,4.42956 z"
       id="path1080"
       sodipodi:nodetypes="cssc" />
    <ellipse
       style="fill:#4a562f;fill-opacity:1;stroke:#000000;stroke-width:0.280065;stroke-miterlimit:4;stroke-dasharray:none;stroke-opacity:0"
       id="path1106"
       cx="20.442089"
       cy="46.506477"
       rx="0.39588952"
       ry="0.53690457" />
    <ellipse
       style="fill:#4a562f;fill-opacity:1;stroke:#000000;stroke-width:0.280065;stroke-miterlimit:4;stroke-dasharray:none;stroke-opacity:0"
       id="path1106-4"
       cx="20.505941"
       cy="48.776119"
       rx="0.39588952"
       ry="0.53690457" />
    <ellipse
       style="fill:#4a562f;fill-opacity:1;stroke:#000000;stroke-width:0.280065;stroke-miterlimit:4;stroke-dasharray:none;stroke-opacity:0"
       id="path1106-2"
       cx="20.582563"
       cy="50.972549"
       rx="0.39588952"
       ry="0.53690457" />
    <path
       style="fill:#e1d9cc;fill-opacity:1;stroke:#b69b5a;stroke-width:0.593945px;stroke-linecap:butt;stroke-linejoin:miter;stroke-opacity:1"
       d="m 21.337691,38.683903 c 0,0 0.330525,-0.893736 0.942749,-1.128283 0.612231,-0.234542 3.711568,-0.6235 3.961808,-0.983214 0.250237,-0.359705 0.878214,2.311411 -1.261526,3.574997 -2.139744,1.263589 -3.643034,-1.463506 -3.643034,-1.463506 z"
       id="path1137"
       inkscape:export-xdpi="96"
       inkscape:export-ydpi="96" />
    <path
       style="fill:#000841;fill-opacity:1;stroke:#000841;stroke-width:0.279625px;stroke-linecap:butt;stroke-linejoin:miter;stroke-opacity:1"
       d="m 30.105564,23.229872 c 0,0 1.89634,2.139839 0.288966,2.24338 -1.607376,0.10354 -12.263011,-1.173461 -17.771432,1.570365 -5.508422,2.743825 -6.5511924,4.268612 -6.5511924,4.268612 0,0 0.7899249,-3.405774 3.2280785,-4.354896 2.4381539,-0.949122 9.3191659,-4.434988 14.7553459,-4.141624 5.436178,0.293365 6.050234,0.414163 6.050234,0.414163 z"
       id="path1139"
       inkscape:export-xdpi="96"
       inkscape:export-ydpi="96" />
  </g>
</svg>
