<?xml version="1.0" encoding="UTF-8" standalone="no"?>
<svg
   xmlns:dc="http://purl.org/dc/elements/1.1/"
   xmlns:cc="http://creativecommons.org/ns#"
   xmlns:rdf="http://www.w3.org/1999/02/22-rdf-syntax-ns#"
   xmlns:svg="http://www.w3.org/2000/svg"
   xmlns="http://www.w3.org/2000/svg"
   xmlns:sodipodi="http://sodipodi.sourceforge.net/DTD/sodipodi-0.dtd"
   xmlns:inkscape="http://www.inkscape.org/namespaces/inkscape"
   width="128"
   height="128"
   viewBox="0 0 33.866666 33.866668"
   version="1.1"
   id="svg8"
   inkscape:version="1.0.2 (e86c870879, 2021-01-15, custom)"
   sodipodi:docname="Dust3.svg">
  <defs
     id="defs2" />
  <sodipodi:namedview
     id="base"
     pagecolor="#ffffff"
     bordercolor="#666666"
     borderopacity="1.0"
     inkscape:pageopacity="0.0"
     inkscape:pageshadow="2"
     inkscape:zoom="7.9195959"
     inkscape:cx="51.59822"
     inkscape:cy="85.234725"
     inkscape:document-units="mm"
     inkscape:current-layer="layer1"
     inkscape:document-rotation="0"
     showgrid="false"
     units="px"
     inkscape:window-width="1920"
     inkscape:window-height="1137"
     inkscape:window-x="1912"
     inkscape:window-y="-8"
     inkscape:window-maximized="1" />
  <metadata
     id="metadata5">
    <rdf:RDF>
      <cc:Work
         rdf:about="">
        <dc:format>image/svg+xml</dc:format>
        <dc:type
           rdf:resource="http://purl.org/dc/dcmitype/StillImage" />
        <dc:title></dc:title>
      </cc:Work>
    </rdf:RDF>
  </metadata>
  <g
     inkscape:label="Layer 1"
     inkscape:groupmode="layer"
     id="layer1">
    <path
       style="fill:#e9c6af;stroke:none;stroke-width:0.135381px;stroke-linecap:butt;stroke-linejoin:miter;stroke-opacity:1"
       d="m 29.708314,21.807587 c -2.421915,0.729736 -3.897013,2.241047 -4.300669,1.824056 -0.403652,-0.416991 -0.751471,0.665514 -1.62605,0.874009 -0.874582,0.208495 -1.618197,-0.512668 -2.223676,-0.304171 -0.60548,0.208495 -1.222399,-0.216868 -2.09698,-0.286366 -0.87458,-0.0695 -1.870995,0.421048 -3.855621,2.158506 -0.990569,0.867207 -2.370159,1.665581 -0.721909,1.804577 1.648248,0.139 4.693224,1.848051 5.668719,0.770825 0.725595,-0.801267 2.231776,0.924734 4.182763,0.160256 0.549273,-0.21523 1.681887,0.382243 2.522829,0.486491 0.840944,0.104245 1.339124,-0.774378 2.892846,-0.555989 0.357637,0.05025 0.897956,-0.09513 1.210957,-1.876456 0.02677,-0.152314 0,0 0.440187,-1.228752 0.320574,-0.894866 0.324048,-1.501268 -0.153844,-2.365228 -0.538204,-0.97298 -1.939545,-1.461752 -1.939545,-1.461752 z"
       id="path833-3"
       sodipodi:nodetypes="csssssssssssssc" />
    <path
       style="fill:#deaa87;stroke:none;stroke-width:0.151737px;stroke-linecap:butt;stroke-linejoin:miter;stroke-opacity:1"
       d="m 4.6679943,23.747392 c 2.6171949,0.848306 3.307841,0.848306 3.7440403,0.363557 0.4361999,-0.484745 0.9814493,-1.171467 1.9265454,-0.929095 0.945101,0.242373 1.635748,1.61582 2.290046,1.858195 0.654298,0.242373 1.490348,0.767514 2.435446,0.686723 0.945096,-0.08078 2.290045,0.646328 4.43469,2.666104 1.070439,1.008114 0.2181,1.575425 -1.563047,1.737006 -1.781147,0.161583 -4.252942,1.050285 -5.307089,-0.201978 -0.7841,-0.931461 -1.381296,1.09068 -3.4895908,0.201977 -0.59356,-0.2502 -1.8174966,0.444353 -2.7262453,0.56554 C 5.5040418,30.816605 4.9690953,29.824734 3.2866968,30.04909 2.3779498,30.170275 1.5782517,29.766324 1.9781,27.867733 2.1445988,27.077159 1.287452,26.292308 2.1235004,25.686376 2.9595489,25.080443 2.2250172,25.196084 2.7414478,24.191743 3.3230474,23.060668 4.6679943,23.747392 4.6679943,23.747392 Z"
       id="path833"
       sodipodi:nodetypes="csssssssssssssc" />
  </g>
</svg>
